<svg xmlns="http://www.w3.org/2000/svg" viewBox="0 0 260 190" role="img" aria-labelledby="title">
  <title id="title">走るなおキング 3</title>
  <defs><linearGradient id="body" x1="0" y1="0" x2="0" y2="1"><stop stop-color="#89daee"/><stop offset="1" stop-color="#347da9"/></linearGradient><filter id="soft"><feDropShadow dx="0" dy="6" stdDeviation="5" flood-color="#001b32" flood-opacity=".35"/></filter></defs>
  <g filter="url(#soft)" transform="translate(0 -2)">
    <path d="M44 110 8 84l10 50 30-3Z" fill="#4b96bd" stroke="#0c4165" stroke-width="6" stroke-linejoin="round"/>
    <path d="M42 107C49 54 103 32 165 51c46 13 74 45 66 79-8 32-54 44-107 35-50-8-87-28-82-58Z" fill="url(#body)" stroke="#0c4165" stroke-width="6"/>
    <path d="m103 51 18-33 18 34Z" fill="#62b5d5" stroke="#0c4165" stroke-width="6" stroke-linejoin="round"/>
    <path d="M166 162c30-2 50-14 62-33-11 43-52 53-99 36Z" fill="#eafcff" opacity=".95"/>
    <path d="m198 150 26 18-34 2Z" fill="#4f9fc4" stroke="#0c4165" stroke-width="5" stroke-linejoin="round"/>
    <path d="M116 159 99 182M151 160l31 13" fill="none" stroke="#0c4165" stroke-width="12" stroke-linecap="round"/>
    <path d="m84 56 9-23 11 17 13-21 10 23" fill="#f4cd57" stroke="#7c5a12" stroke-width="5" stroke-linejoin="round"/>
    <path d="M181 93h24" stroke="#08324e" stroke-width="8" stroke-linecap="round"/>
    <path d="M203 117q11 10 20-2" fill="none" stroke="#08324e" stroke-width="5" stroke-linecap="round"/>
    <path d="M166 109q-8 5-12 13m24-11q-8 8-8 16" fill="none" stroke="#0c4165" stroke-width="5" stroke-linecap="round"/>
    <path d="m79 117 23-11-8 29" fill="#74c5df" stroke="#0c4165" stroke-width="5" stroke-linejoin="round"/>
  </g>
</svg>
