<svg xmlns="http://www.w3.org/2000/svg" viewBox="0 0 300 240" role="img" aria-labelledby="title">
  <title id="title">王冠ボールを狙うなおキング</title>
  <defs><linearGradient id="body" x1="0" y1="0" x2="0" y2="1"><stop stop-color="#a1e8f4"/><stop offset="1" stop-color="#3d87b1"/></linearGradient><filter id="s"><feDropShadow dx="0" dy="8" stdDeviation="7" flood-color="#00162b" flood-opacity=".42"/></filter></defs>
  <g filter="url(#s)" transform="rotate(-7 146 126)">
    <path d="m62 133-47-39 10 67 43-4Z" fill="#4b98bf" stroke="#0b4267" stroke-width="7" stroke-linejoin="round"/>
    <path d="M58 131C64 61 129 40 201 68c47 18 72 62 54 99-17 35-76 42-133 26-49-14-69-36-64-62Z" fill="url(#body)" stroke="#0b4267" stroke-width="7"/>
    <path d="m126 61 24-44 23 49Z" fill="#67bbd8" stroke="#0b4267" stroke-width="7" stroke-linejoin="round"/>
    <path d="M191 190c31-6 53-20 65-39-7 45-65 61-118 44Z" fill="#effdff"/>
    <path d="m117 61 9-28 14 19 15-24 12 33" fill="#f6ce54" stroke="#7a5711" stroke-width="6" stroke-linejoin="round"/>
    <path d="m215 106 25 3" stroke="#082f4a" stroke-width="9" stroke-linecap="round"/>
    <path d="M235 137q13 11 22-4" fill="none" stroke="#082f4a" stroke-width="6" stroke-linecap="round"/>
    <path d="M198 129q-9 4-15 15m27-12q-7 8-9 17" fill="none" stroke="#0b4267" stroke-width="6" stroke-linecap="round"/>
    <path d="m91 144 35-21-14 42" fill="#76c7df" stroke="#0b4267" stroke-width="6" stroke-linejoin="round"/>
    <path d="M133 190 106 224M176 196l28 26" fill="none" stroke="#0b4267" stroke-width="14" stroke-linecap="round"/>
  </g>
</svg>
